<?xml version="1.0" encoding="utf-8"?>
<!-- Svg Vector Icons : http://www.onlinewebfonts.com/icon -->
<!DOCTYPE svg PUBLIC "-//W3C//DTD SVG 1.1//EN" "http://www.w3.org/Graphics/SVG/1.1/DTD/svg11.dtd">
<svg version="1.1" xmlns="http://www.w3.org/2000/svg" xmlns:xlink="http://www.w3.org/1999/xlink" x="0px" y="0px" viewBox="0 0 1000 1000" enable-background="new 0 0 1000 1000" xml:space="preserve">
<metadata> Svg Vector Icons : http://www.onlinewebfonts.com/icon </metadata>
<g><path d="M740.8,923.4C760,913.1,906,852.4,897.6,721c-3.2-49.8-17.9-88.1-36.9-128.6c-20.7-44.1-42-89.7-42-155.8v-102c17.9,21.2,44.8,34.2,74.4,34.2c53.5,0,97-43,97-95.8c0-5.5-4.5-9.9-10-9.9H825.1c2-11.1,3.1-22.5,3.1-33.8c0-88.8-63.8-166.5-151.6-184.7c-4.4-0.9-8.8,1.1-10.9,5c-2.1,3.9-1.4,8.7,1.8,11.8c46.6,46,66.8,107.5,49.2,149.5c-14.3,34.1-51.5,52.2-107.6,52.2H391c-56.1,0-93.3-18-107.6-52.2c-17.6-42,2.6-103.5,49.2-149.5c3.2-3.1,3.9-7.9,1.8-11.8c-2.1-3.9-6.5-5.9-10.9-5c-87.8,18.2-151.6,95.9-151.6,184.7c0,11.4,1,22.7,3.1,33.8H20.1c-5.6,0-10.1,4.5-10.1,9.9c0,52.9,43.5,95.8,97,95.8c29.6,0,56.4-13,74.4-34.2v102c0,66-21.4,111.6-42.1,155.8c-19,40.5-36.9,78.7-36.9,128.5c0,127.7,126.4,190.8,144.5,197.3C286.6,932.4,490.4,991.6,740.8,923.4z"/><path d="M162.3,709.8c0,0,6.9-57.5,94.1-41.1c0,0,177.1,18.5,243.5,16.4c0,0,257.4-13,296.2-19.2c0,0,67.8,4.8,38.8,95.9c0,0-7.6,57.5-83,90.4c0,0-64.4,45.2-290.6,41.1c0,0-209-0.7-265.7-82.1C195.5,811.2,160.2,779,162.3,709.8z"/><path d="M677.1,489.9c37.4,0,67.8,30,67.8,67.1c0,37-30.4,67.1-67.8,67.1c-37.5,0-67.8-30.1-67.8-67.1C609.3,519.9,639.7,489.9,677.1,489.9z"/><path d="M679.9,518.1c22.2,0,40.1,17.8,40.1,39.7c0,21.9-18,39.7-40.1,39.7c-22.1,0-40.1-17.8-40.1-39.7C639.8,535.9,657.8,518.1,679.9,518.1z"/><path d="M314.5,489.9c37.5,0,67.8,30,67.8,67.1c0,37-30.4,67.1-67.8,67.1c-37.4,0-67.8-30.1-67.8-67.1C246.7,519.9,277.1,489.9,314.5,489.9z"/><path d="M317.3,518.1c22.2,0,40.1,17.8,40.1,39.7c0,21.9-18,39.7-40.1,39.7c-22.2,0-40.1-17.8-40.1-39.7C277.2,535.9,295.1,518.1,317.3,518.1z"/><path d="M232.9,699.3c15,0,27.2,12.1,27.2,26.9c0,14.8-12.2,26.9-27.2,26.9c-15,0-27.2-12-27.2-26.9C205.7,711.4,217.9,699.3,232.9,699.3z"/><path d="M785.2,699.3c15,0,27.2,12.1,27.2,26.9c0,14.8-12.2,26.9-27.2,26.9c-15,0-27.2-12-27.2-26.9C758,711.4,770.1,699.3,785.2,699.3z"/><path d="M426.3,821.9c0,0-8.8-22.1,16.8-16.7c0,0,30.2,30.5,63.7,26.8c0,0,40.2,1.6,60.3-23.4c0,0,26.4-15.5,20.1,13.4c0,0-24.9,32.2-80.5,33.6C506.7,855.4,464,856.2,426.3,821.9z"/><path d="M524.9,304.5l-108,115l63.6,5.5L464,482.5l108-115h-66.4L524.9,304.5z"/></g>
</svg>